<?xml version="1.0" encoding="UTF-8"?>
<svg version="1.1" xmlns="http://www.w3.org/2000/svg" width="512" height="512">
<path d="M0 0 C1.43617676 0.21003662 1.43617676 0.21003662 2.90136719 0.42431641 C42.66510267 6.53546822 80.6286511 22.69776765 112 48 C112.52303711 48.42152344 113.04607422 48.84304687 113.58496094 49.27734375 C127.62800849 60.69714671 141.14923303 73.46994998 152 88 C152.59603027 88.79736572 152.59603027 88.79736572 153.20410156 89.61083984 C190.78188739 140.20963128 208.10807997 203.31766793 199 266 C193.15264518 305.22236047 177.67017882 344.33755406 152.46191406 375.20605469 C151.31803125 376.6097372 150.18721406 378.02406934 149.06152344 379.44238281 C143.56330432 386.30118642 137.72009049 392.66650488 131.5 398.875 C131.0240036 399.35078491 130.5480072 399.82656982 130.05758667 400.31677246 C121.61563354 408.7216463 112.7668904 416.17488404 103 423 C101.83164618 423.84842832 100.6636659 424.6973713 99.49609375 425.546875 C82.05626343 437.95452378 62.24068801 447.21640046 42 454 C41.17193848 454.27924316 40.34387695 454.55848633 39.49072266 454.84619141 C-18.79271784 474.1678627 -83.26516499 468.60253458 -138.20043945 441.58154297 C-157.80272391 431.65423268 -175.54076625 419.48627206 -191.484375 404.33984375 C-193.96099999 401.97497502 -193.96099999 401.97497502 -196.62890625 399.9140625 C-198.75672449 398.19638385 -200.43518503 396.52316023 -202.1875 394.4375 C-204.1512211 392.12748829 -206.12644722 389.86686245 -208.21484375 387.66796875 C-221.08090778 374.09291578 -231.22262955 358.46004256 -240 342 C-240.4237793 341.20851563 -240.84755859 340.41703125 -241.28417969 339.6015625 C-269.70209773 285.60533391 -274.44098476 221.69575022 -257.09765625 163.5078125 C-246.62065458 129.76641948 -229.6353339 99.22599313 -205.359375 73.51171875 C-203.42641387 71.45394721 -201.60280862 69.36763388 -199.8125 67.1875 C-196.56562598 63.36279247 -192.82763813 60.22759585 -189 57 C-188.07445312 56.18660156 -187.14890625 55.37320313 -186.1953125 54.53515625 C-172.31705931 42.4044201 -157.35630194 32.46783061 -141 24 C-140.2874707 23.62278809 -139.57494141 23.24557617 -138.84082031 22.85693359 C-96.83121228 0.80045528 -46.82140117 -6.89262223 0 0 Z M-182.49023438 73.54150391 C-183.53992676 74.55555021 -184.59645043 75.56255322 -185.65820312 76.56396484 C-195.22728116 85.59633304 -203.35063949 95.30199961 -211 106 C-211.45358887 106.63019043 -211.90717773 107.26038086 -212.37451172 107.90966797 C-245.58399653 154.49708773 -257.3692701 213.92748594 -248 270 C-240.1807749 311.88644101 -221.16672177 350.79554192 -191.45849609 381.49023438 C-190.44444979 382.53992676 -189.43744678 383.59645043 -188.43603516 384.65820312 C-179.40366696 394.22728116 -169.69800039 402.35063949 -159 410 C-158.36980957 410.45358887 -157.73961914 410.90717773 -157.09033203 411.37451172 C-111.93205373 443.56524401 -53.71345032 456.25120752 0.86132812 447.54345703 C58.45348716 437.87978238 109.67311736 406.58883051 144 359.25 C177.35697665 312.30838496 191.63547437 254.14026819 182.54345703 197.13769531 C175.16817886 154.44468257 156.04365899 113.63395835 125.54052734 82.57568359 C123.92029985 80.91848102 122.32946048 79.23586306 120.73828125 77.55078125 C112.2308392 68.66103732 102.99986377 61.15017389 93 54 C92.36980957 53.54641113 91.73961914 53.09282227 91.09033203 52.62548828 C12.29927254 -3.54011409 -98.10524426 2.92821405 -182.49023438 73.54150391 Z " fill="#000000" transform="translate(289,24)"/>
<path d="M0 0 C8.14019569 5.9229421 15.08775261 13.93950325 22.18701172 21.04174805 C23.61330181 22.46504234 25.03979556 23.88813258 26.46647644 25.31103516 C30.32174936 29.15751272 34.17380939 33.00719205 38.02500677 36.8577497 C40.4319557 39.26398628 42.8396159 41.66950879 45.24753189 44.0747776 C53.64899326 52.4670046 62.04788468 60.86179364 70.44433594 69.2590332 C78.27197586 77.08727536 86.10519232 84.90990669 93.9410094 92.729963 C100.67337247 99.44926647 107.40189081 106.17240342 114.12740719 112.89855987 C118.14250473 116.9139126 122.15914646 120.92769055 126.17965317 124.93762779 C129.95483326 128.70315204 133.72521623 132.47341337 137.49192238 136.24741364 C138.87613779 137.6326776 140.26207009 139.01622835 141.64982033 140.39795113 C143.5407173 142.28116444 145.42537559 144.17040714 147.30856323 146.06132507 C147.86146809 146.60908637 148.41437296 147.15684767 148.98403251 147.7212078 C153.80303833 152.5841728 153.80303833 152.5841728 155 156 C154.86024928 159.35401719 154.42209245 161.37878088 152.53027344 164.16308594 C148.71140596 166.93548645 145.24186998 166.49904265 140.640625 166.390625 C139.73624695 166.38496521 138.8318689 166.37930542 137.90008545 166.37347412 C135.01618147 166.35111248 132.13352739 166.30091686 129.25 166.25 C127.29298671 166.22993471 125.33595392 166.21168399 123.37890625 166.1953125 C118.58545711 166.15124839 113.79294035 166.08222252 109 166 C109.00460896 166.61254009 109.00921793 167.22508018 109.01396656 167.8561821 C109.12470928 182.80657247 109.2072839 197.75687733 109.25906086 212.70757675 C109.28476972 219.93785139 109.31977854 227.16785112 109.37719727 234.39794922 C109.4272583 240.70461832 109.45934413 247.01108819 109.47044247 253.31795049 C109.47692353 256.65318372 109.49467835 259.98739884 109.52865028 263.32253265 C109.56517934 267.05878363 109.56993509 270.79387138 109.56762695 274.53027344 C109.58560333 275.61856949 109.60357971 276.70686554 109.62210083 277.82814026 C109.54646802 289.21279051 105.49109231 298.64641888 97.58203125 306.8046875 C85.77185323 316.84601889 71.78148847 317.30482953 56.97265625 317.25878906 C55.49136179 317.26150515 54.01006867 317.26506953 52.52877808 317.26940918 C48.53704843 317.278462 44.54542314 317.27501852 40.55369186 317.26865101 C36.35748788 317.26355395 32.16129226 317.26829269 27.96508789 317.27142334 C20.92104504 317.27505225 13.87704426 317.2702922 6.83300781 317.26074219 C-1.28712937 317.24985972 -9.40716608 317.25338606 -17.52730083 317.264395 C-24.52467293 317.27349861 -31.52201495 317.27473817 -38.51939106 317.26951766 C-42.6874131 317.26641481 -46.85538805 317.26594192 -51.02340698 317.27259064 C-54.94365977 317.27840839 -58.86378422 317.27428701 -62.78402328 317.26280212 C-64.21458601 317.26017905 -65.64515971 317.26087987 -67.07571793 317.26532745 C-81.63958226 317.30639887 -95.54974429 316.07770834 -106.875 305.875 C-112.60482351 299.61151646 -117.12909296 290.5747083 -117.12025452 282.04560852 C-117.12162918 281.02337189 -117.12300385 280.00113525 -117.12442017 278.94792175 C-117.11902725 277.26694145 -117.11902725 277.26694145 -117.11352539 275.55200195 C-117.11367142 274.37138184 -117.11381744 273.19076172 -117.1139679 271.97436523 C-117.11339024 268.73702558 -117.10837183 265.49972905 -117.10139394 262.262398 C-117.09514648 258.87913211 -117.0945555 255.49586538 -117.09336853 252.1125946 C-117.09025933 245.70593784 -117.08205147 239.29929813 -117.07201904 232.89264888 C-117.06084516 225.59888731 -117.05534423 218.30512494 -117.05032361 211.01135695 C-117.03986853 196.0075618 -117.02227702 181.0037826 -117 166 C-118.22106445 166.02094727 -119.44212891 166.04189453 -120.70019531 166.06347656 C-125.23246524 166.13590159 -129.76468407 166.18180888 -134.29736328 166.21972656 C-136.25871381 166.23983632 -138.22000444 166.26712818 -140.18115234 166.30175781 C-143.00112695 166.35030421 -145.82030865 166.37297486 -148.640625 166.390625 C-149.95489471 166.42159271 -149.95489471 166.42159271 -151.29571533 166.45318604 C-157.37725601 166.45542524 -157.37725601 166.45542524 -160.52246094 164.15527344 C-162.48792984 161.28826097 -163 159.48776456 -163 156 C-160.23199648 151.21436291 -156.77847752 147.49381992 -152.88928223 143.63531494 C-152.28023749 143.02315022 -151.67119275 142.4109855 -151.04369211 141.78027034 C-149.01106285 139.73969308 -146.97139513 137.70630457 -144.93164062 135.67285156 C-143.46916421 134.20766393 -142.00711336 132.74205141 -140.54545593 131.27604675 C-136.58121489 127.30269668 -132.61068396 123.33568854 -128.63871574 119.37006474 C-124.48291415 115.21932887 -120.33199694 111.06371306 -116.18029785 106.90887451 C-109.20989353 99.93483304 -102.23528577 92.96501618 -95.25830078 85.99755859 C-87.18837665 77.93852704 -79.12569431 69.87230422 -71.06671953 61.80232453 C-64.1480196 54.87455479 -57.22543742 47.95068252 -50.29958296 41.0300653 C-46.16259602 36.89619863 -42.02697761 32.76098721 -37.89485168 28.62226105 C-34.01209556 24.73373627 -30.12449609 20.85012017 -26.23307228 16.97027016 C-24.80427856 15.54412521 -23.37719196 14.11626765 -21.95192528 12.68659782 C-20.00943608 10.73866069 -18.06091939 8.79696171 -16.11071777 6.85675049 C-15.2626606 6.00200115 -15.2626606 6.00200115 -14.39747095 5.12998414 C-9.64385503 0.42363486 -6.69341757 -2.18823267 0 0 Z M-8.66066754 22.39784282 C-9.16066513 22.90298398 -9.66066273 23.40812514 -10.17581177 23.92857361 C-10.97466775 24.72380797 -10.97466775 24.72380797 -11.78966224 25.53510767 C-13.58479217 27.32457208 -15.37264478 29.12113784 -17.16064453 30.91772461 C-18.441289 32.19729691 -19.72236611 33.47643632 -21.00384521 34.75517273 C-24.49168835 38.23815418 -27.97322616 41.72737729 -31.45356989 45.21785045 C-35.08848497 48.86152353 -38.72864524 52.4999493 -42.36813354 56.13905334 C-48.47979432 62.25165172 -54.58756287 68.36811754 -60.69287109 74.48706055 C-67.76276407 81.57268356 -74.8378745 88.65306199 -81.91600335 95.73045725 C-88.71117949 102.5250241 -95.50349849 109.32243921 -102.29421616 116.12146187 C-105.19057658 119.02136298 -108.08779394 121.92040402 -110.98566055 124.81879997 C-114.39427243 128.2284127 -117.80033553 131.64055121 -121.20439911 135.05470467 C-122.45809845 136.31133727 -123.71265802 137.56711229 -124.96811295 138.82199097 C-126.67378454 140.52717568 -128.37637293 142.23537811 -130.07815552 143.94444275 C-130.58261456 144.44735319 -131.0870736 144.95026362 -131.60681927 145.46841377 C-133.97305612 147.40021056 -133.97305612 147.40021056 -135 150 C-134.13721436 150.01458252 -133.27442871 150.02916504 -132.38549805 150.04418945 C-129.18150353 150.10527754 -125.97815375 150.17943549 -122.7746582 150.26245117 C-121.38870623 150.29568549 -120.00261939 150.32372226 -118.61645508 150.34643555 C-116.62293157 150.38000617 -114.62978259 150.43388 -112.63671875 150.48828125 C-111.43748779 150.51446533 -110.23825684 150.54064941 -109.00268555 150.56762695 C-106 151 -106 151 -104.14770508 152.40698242 C-101.9773128 155.41949244 -101.87365381 157.37372627 -101.86869812 161.04605103 C-101.86468994 162.11425079 -101.86068176 163.18245056 -101.85655212 164.28302002 C-101.85708084 165.46015564 -101.85760956 166.63729126 -101.8581543 167.85009766 C-101.85467987 169.0859964 -101.85120544 170.32189514 -101.84762573 171.59524536 C-101.84025744 174.28751784 -101.83458948 176.97974071 -101.83133507 179.67201614 C-101.82542517 183.93384097 -101.80888323 188.19558225 -101.78999329 192.45736694 C-101.78365553 193.91678042 -101.77732991 195.37619395 -101.77101612 196.83560753 C-101.76785031 197.56661195 -101.7646845 198.29761636 -101.76142275 199.05077243 C-101.71936907 208.97344914 -101.68639351 218.89608781 -101.67407227 228.81884766 C-101.66567817 235.51013963 -101.64313475 242.20122555 -101.6047166 248.89241445 C-101.58499496 252.43176338 -101.57253812 255.97080458 -101.57755089 259.51021194 C-101.58308312 263.46485424 -101.5577318 267.41897929 -101.5300293 271.37353516 C-101.53663071 272.53852539 -101.54323212 273.70351563 -101.55003357 274.90380859 C-101.46174924 282.58761135 -100.41880674 288.03816132 -95.25390625 294.0234375 C-86.61034475 300.93030189 -78.39214528 301.15280509 -67.625 301.0625 C-66.60277344 301.05798828 -65.58054687 301.05347656 -64.52734375 301.04882812 C-62.01816806 301.037103 -59.5091151 301.02069176 -57 301 C-56.99120064 299.0480069 -56.99120064 299.0480069 -56.98222351 297.05657959 C-56.92486435 284.75750036 -56.85203402 272.4585957 -56.76428509 260.15969467 C-56.71966987 253.83759602 -56.68039423 247.5155605 -56.65356445 241.19335938 C-56.62744328 235.08538082 -56.58697858 228.97764637 -56.53681374 222.86981964 C-56.52020454 220.54642029 -56.50865341 218.22297877 -56.50238609 215.8995285 C-56.44434262 196.34911012 -55.36475974 180.0583901 -41.2578125 165.06640625 C-28.90563482 153.7613855 -14.23320362 150.25869071 2.04199219 150.86816406 C14.75578865 151.72420522 27.56642001 158.62575148 36 168 C42.9828155 177.11645357 48.0615304 187.98144724 48.15821838 199.6254425 C48.17290161 200.97360298 48.17290161 200.97360298 48.18788147 202.34899902 C48.19363693 203.32220093 48.1993924 204.29540283 48.20532227 205.2980957 C48.21522186 206.33270432 48.22512146 207.36731293 48.23532104 208.43327332 C48.26686704 211.84741948 48.29166626 215.26157955 48.31640625 218.67578125 C48.33698173 221.04518492 48.35797836 223.41458497 48.37937927 225.78398132 C48.43453856 232.01625635 48.48397497 238.24856417 48.53222656 244.480896 C48.58248642 250.84211135 48.63814908 257.20327916 48.69335938 263.56445312 C48.80086583 276.04292812 48.90232751 288.52144442 49 301 C52.47909371 301.05883728 55.95805674 301.09387399 59.4375 301.125 C60.41138672 301.14175781 61.38527344 301.15851563 62.38867188 301.17578125 C72.55164543 301.24376101 80.4665444 300.20961928 88 293 C91.70277962 288.55880479 93.12108044 284.55609763 93.14476013 278.80677795 C93.15510788 277.19374535 93.15510788 277.19374535 93.16566467 275.54812622 C93.16827805 274.3683017 93.17089142 273.18847717 93.17358398 271.97290039 C93.1836145 270.10919548 93.1836145 270.10919548 93.19384766 268.20783997 C93.20791409 265.50521085 93.2202385 262.80263561 93.22979546 260.09999275 C93.2452497 255.82658461 93.2691982 251.55325047 93.29469299 247.27989197 C93.36589274 235.12812981 93.42570009 222.97632561 93.47680664 210.82446289 C93.50510735 204.11311183 93.54048531 197.40183473 93.58346039 190.69056123 C93.61023444 186.44248243 93.62813839 182.19448727 93.63949764 177.94634068 C93.65076502 174.68300886 93.6748873 171.4197676 93.69702148 168.15649414 C93.69761063 166.97869385 93.69819977 165.80089355 93.69880676 164.58740234 C93.71338425 162.97014 93.71338425 162.97014 93.72825623 161.32020569 C93.73248816 160.3838733 93.7367201 159.44754091 93.74108028 158.48283482 C94.01600296 155.84654426 94.57574541 154.22374235 96 152 C98.84535725 150.57732138 101.36218552 150.78028131 104.5390625 150.68359375 C105.84101563 150.64169922 107.14296875 150.59980469 108.484375 150.55664062 C109.86458045 150.51682701 111.24478883 150.47711478 112.625 150.4375 C114.01303415 150.39430593 115.40105528 150.35069135 116.7890625 150.30664062 C120.19260256 150.20028 123.59621778 150.09825286 127 150 C121.41177932 143.19140909 115.1901032 137.0417866 108.96777344 130.82250977 C107.74827551 129.60001601 106.52898165 128.37731865 105.30987549 127.1544342 C102.01510719 123.85087238 98.71713983 120.55052261 95.41829205 117.25103498 C93.35764886 115.18967952 91.29771994 113.12761308 89.23804474 111.06529045 C82.05412399 103.87213706 74.86764363 96.68155252 67.67871094 89.4934082 C60.97232197 82.78762192 54.27155159 76.07625702 47.57334495 69.36229855 C41.82053299 63.59643925 36.06390102 57.83441309 30.30424142 52.07539409 C26.86461735 48.63602551 23.42657895 45.19510693 19.99236298 41.7503376 C16.7693793 38.51771828 13.54169086 35.28987391 10.31023407 32.06572533 C9.12247413 30.87901638 7.93643666 29.6905807 6.75221252 28.50034332 C5.14191412 26.8823954 3.52565084 25.27065914 1.90765381 23.66041565 C1.00287167 22.75508874 0.09808952 21.84976183 -0.83411026 20.91700077 C-4.49900372 17.67325135 -5.53021371 19.29890295 -8.66066754 22.39784282 Z M-33.84765625 180.16796875 C-39.89533216 188.56339109 -41.45772428 197.5102602 -41.34057617 207.68212891 C-41.34101425 208.69796051 -41.34145233 209.71379211 -41.34190369 210.76040649 C-41.33983136 214.08266132 -41.31657399 217.404397 -41.29296875 220.7265625 C-41.28736726 223.04397303 -41.28309978 225.36138713 -41.28010559 227.67880249 C-41.26870039 233.75166791 -41.23927053 239.82431502 -41.20599365 245.89709473 C-41.16977654 253.19765207 -41.15611103 260.49828278 -41.13863373 267.79890442 C-41.10963063 278.8660877 -41.05211276 289.9327928 -41 301 C-16.58 301 7.84 301 33 301 C33.0873165 282.75977948 33.0873165 282.75977948 33.14648438 264.51953125 C33.16438941 257.075618 33.18552858 249.63181589 33.22631836 242.18798828 C33.25901152 236.18388021 33.27687409 230.17989139 33.28463173 224.17570114 C33.29015736 221.88967386 33.30094745 219.6036528 33.31719017 217.31767654 C33.33909651 214.10568594 33.34196138 210.89418268 33.34057617 207.68212891 C33.351362 206.74560486 33.36214783 205.80908081 33.3732605 204.84417725 C33.31529677 192.35161385 28.93922801 182.96808135 20.12109375 174.11328125 C12.50931013 167.80455871 2.77593946 165.21693203 -6.9921875 165.625 C-18.02647629 167.00070354 -26.63301891 171.70259089 -33.84765625 180.16796875 Z " fill="#000000" transform="translate(260,83)"/>
</svg>
